<svg width="40" height="40" viewBox="0 0 40 40" fill="none" xmlns="http://www.w3.org/2000/svg">
<path d="M20.0455 0H19.9545C8.93391 0 0 8.93391 0 19.9545V20.0455C0 31.0661 8.93391 40 19.9545 40H20.0455C31.0661 40 40 31.0661 40 20.0455V19.9545C40 8.93391 31.0661 0 20.0455 0Z" fill="#474747"/>
<path d="M18.4521 20.7518C18.1046 20.316 17.7066 19.9825 17.261 19.7568C17.6548 19.5172 17.9939 19.2229 18.2742 18.8726C18.7464 18.2812 18.9861 17.5398 18.9861 16.6682C18.9861 15.9408 18.7941 15.2724 18.4143 14.6824C18.0359 14.0924 17.4726 13.6187 16.7396 13.274C16.0221 12.9363 15.1575 12.7653 14.1723 12.7653H8.56812V27.2375H14.4301C15.3901 27.2375 16.2478 27.0623 16.9779 26.7176C17.722 26.3672 18.3022 25.8767 18.7002 25.2615C19.0996 24.6435 19.3028 23.9414 19.3028 23.1748C19.3028 22.2766 19.0169 21.4623 18.4521 20.7532V20.7518ZM15.4756 18.1144C15.1294 18.3947 14.6235 18.5376 13.9747 18.5376H11.5503V15.3312H13.9747C14.6207 15.3312 15.1238 15.4784 15.47 15.7699C15.8021 16.0488 15.9633 16.4341 15.9633 16.9443C15.9633 17.4544 15.8035 17.8496 15.4756 18.1144ZM11.5503 21.105H14.1527C14.8337 21.105 15.3579 21.2703 15.7545 21.6109C16.1342 21.9374 16.3192 22.3705 16.3192 22.9366C16.3192 23.5028 16.1483 23.9022 15.7951 24.2007C15.4293 24.5104 14.9038 24.6673 14.2312 24.6673H11.5503V21.105Z" fill="white"/>
<path d="M30.7521 18.3316C30.3008 17.516 29.6618 16.8728 28.8518 16.4215C28.0432 15.9703 27.1085 15.7419 26.077 15.7419C25.0456 15.7419 24.0408 15.9773 23.2126 16.4411C22.383 16.9064 21.7299 17.5749 21.273 18.4311C20.8162 19.286 20.585 20.2894 20.585 21.4133C20.585 22.5372 20.8232 23.542 21.2941 24.3955C21.7649 25.2503 22.4236 25.923 23.2532 26.3939C24.0814 26.8647 25.0316 27.103 26.0784 27.103C27.3635 27.103 28.4552 26.7764 29.3241 26.1332C30.1929 25.49 30.8011 24.6519 31.1333 23.6443L31.1571 23.5728H28.615L28.5995 23.6037C28.1104 24.5945 27.2626 25.0962 26.077 25.0962C25.2516 25.0962 24.5453 24.8341 23.9777 24.3198C23.4242 23.8167 23.1061 23.144 23.0318 22.3186H31.3449L31.3519 22.2724C31.4051 21.9402 31.4318 21.5646 31.4318 21.1568C31.4318 20.0974 31.2033 19.1472 30.7521 18.3316ZM24.017 18.4774C24.5579 17.9939 25.218 17.7501 25.9775 17.7501C26.817 17.7501 27.5303 17.9981 28.0978 18.4886C28.65 18.9651 28.9429 19.6055 28.9681 20.3903H23.0556C23.1677 19.5929 23.4915 18.9496 24.0184 18.4788L24.017 18.4774Z" fill="white"/>
<path d="M28.7762 13.0988H23.2393V14.4105H28.7762V13.0988Z" fill="white"/>
</svg>
