<svg width="41" height="40" viewBox="0 0 41 40" fill="none" xmlns="http://www.w3.org/2000/svg">
<path d="M20.8873 0H20.7963C9.77571 0 0.841797 8.93391 0.841797 19.9545V20.0455C0.841797 31.0661 9.77571 40 20.7963 40H20.8873C31.9079 40 40.8418 31.0661 40.8418 20.0455V19.9545C40.8418 8.93391 31.9079 0 20.8873 0Z" fill="#474747"/>
<path d="M33.3906 20.5206C33.3934 20.4772 33.3948 20.4323 33.3962 20.3875L33.42 19.8311L33.399 19.8255C33.3583 16.8854 32.3101 14.0994 30.4196 11.874L30.442 11.8502L29.8464 11.2378C27.4571 8.78394 24.2577 7.43301 20.8355 7.43301C19.0781 7.43301 17.388 7.78757 15.8003 8.48406L15.7876 8.47424L15.2719 8.7293C14.5894 9.06704 13.9448 9.46222 13.3436 9.90927C12.9428 10.2078 12.5616 10.5273 12.2001 10.8692C12.0655 10.9967 11.9352 11.1271 11.8063 11.2602C10.0391 13.0862 8.83953 15.428 8.42611 17.9897L8.29298 18.8193L8.32241 18.8263C8.28598 19.2159 8.26636 19.6097 8.26636 20.0021C8.26636 23.3332 9.59488 26.527 11.9338 28.8743L11.924 28.8926L12.4481 29.362C14.7562 31.4305 17.7342 32.5712 20.8341 32.5712C21.0541 32.5712 21.2727 32.5656 21.4899 32.5544C23.0146 32.4773 24.4903 32.127 25.8833 31.5146C25.8833 31.5146 25.8847 31.5146 25.8861 31.5146L26.4312 31.2749V31.2581C30.4883 29.2331 33.1972 25.0948 33.3892 20.5557C33.3892 20.5543 33.3892 20.5529 33.3892 20.5515C33.3892 20.5501 33.3892 20.5473 33.3892 20.5459V20.5262L33.3906 20.5206ZM31.5491 21.2073C31.5435 21.2521 31.5379 21.297 31.5323 21.3418C31.5225 21.4189 31.5127 21.496 31.5015 21.5717C31.4945 21.6207 31.4861 21.6698 31.4777 21.7188C31.4664 21.7903 31.4538 21.8618 31.4412 21.9332C31.4314 21.9851 31.4216 22.0355 31.4104 22.0874C31.3964 22.1561 31.3838 22.2247 31.3683 22.292C31.3571 22.3438 31.3445 22.3957 31.3319 22.4476C31.3165 22.5148 31.2997 22.5807 31.2829 22.6465C31.2688 22.6984 31.2548 22.7516 31.2408 22.8035C31.2226 22.868 31.2044 22.9338 31.1862 22.9983C31.1708 23.0501 31.1553 23.1034 31.1385 23.1552C31.1189 23.2197 31.0979 23.2828 31.0783 23.3472C31.0614 23.3991 31.0432 23.4509 31.025 23.5028C31.0026 23.5659 30.9802 23.6289 30.9577 23.692C30.9395 23.7424 30.9199 23.7943 30.9003 23.8447C30.8765 23.9078 30.8512 23.9695 30.826 24.0325C30.8064 24.083 30.7854 24.132 30.7643 24.1825C30.7377 24.2441 30.7111 24.3058 30.6831 24.3675C30.6606 24.4165 30.6396 24.4656 30.6172 24.5132C30.5878 24.5749 30.5583 24.6365 30.5289 24.6982C30.5065 24.7458 30.4827 24.7921 30.4588 24.8397C30.428 24.9014 30.3944 24.963 30.3621 25.0247C30.3383 25.0695 30.3145 25.1144 30.2907 25.1592C30.2556 25.2223 30.2192 25.2854 30.1828 25.3484C30.1589 25.3905 30.1351 25.4325 30.1113 25.4732C30.0707 25.5418 30.0286 25.6105 29.9866 25.6778C29.9656 25.7114 29.9445 25.7464 29.9235 25.7815C29.8646 25.8739 29.8044 25.9651 29.7427 26.0561C29.7371 26.066 29.7301 26.0744 29.7245 26.0842C29.6558 26.1837 29.5858 26.2818 29.5143 26.3799C29.4933 26.4079 29.4709 26.4359 29.4498 26.4639C29.3994 26.5326 29.3475 26.5999 29.2957 26.6671C29.2677 26.7036 29.2382 26.7386 29.2088 26.775C29.1625 26.8325 29.1149 26.8914 29.0673 26.9474C29.035 26.9853 29.0014 27.0231 28.9692 27.0609C28.9229 27.1142 28.8767 27.1674 28.829 27.2207C28.794 27.2599 28.759 27.2978 28.7239 27.3356C28.6777 27.386 28.63 27.4365 28.5824 27.487C28.5459 27.5248 28.5081 27.5626 28.4703 27.6005C28.4226 27.6481 28.375 27.6972 28.3259 27.7448C28.2867 27.7826 28.2488 27.8191 28.2096 27.8569C28.1605 27.9032 28.1115 27.9494 28.0625 27.9943C28.0218 28.0307 27.9812 28.0671 27.9405 28.1036C27.8901 28.1484 27.8396 28.1919 27.7878 28.2353C27.7457 28.2703 27.7051 28.3054 27.6617 28.3404C27.6098 28.3824 27.558 28.4259 27.5047 28.4665C27.4627 28.5002 27.4192 28.5338 27.3758 28.5674C27.3225 28.6081 27.2679 28.6487 27.2146 28.6893C27.1712 28.7216 27.1263 28.7538 27.0829 28.7861C27.0282 28.8253 26.9722 28.8645 26.9161 28.9024C26.8713 28.9332 26.8278 28.964 26.783 28.9935C26.7255 29.0313 26.6667 29.0691 26.6092 29.1056C26.5644 29.1336 26.5195 29.163 26.4747 29.1911C26.4326 29.2177 26.3892 29.2415 26.3457 29.2681C26.1425 26.6167 25.5484 23.8714 24.6052 21.2311C26.9413 20.7056 29.3125 20.6888 31.5519 21.1877C31.5519 21.1947 31.5519 21.2017 31.5505 21.2073H31.5491ZM23.9494 19.5523C23.6326 18.8025 23.2935 18.0696 22.9291 17.3605C25.2751 16.294 27.4038 14.8604 29.1696 13.1605C30.6214 14.9249 31.4664 17.0844 31.5968 19.3729C29.1177 18.8754 26.5083 18.9371 23.948 19.5523H23.9494ZM10.3684 17.3927C10.4091 17.2288 10.4539 17.0648 10.503 16.9022C10.5114 16.8728 10.5212 16.842 10.5296 16.8125C10.5787 16.6542 10.6305 16.4972 10.6866 16.3417C10.6908 16.3305 10.6936 16.3206 10.6978 16.3094C10.7048 16.2898 10.7118 16.2702 10.7188 16.2506C10.7763 16.0964 10.8365 15.9451 10.8996 15.7937C10.9094 15.7713 10.9178 15.7503 10.9276 15.7279C10.929 15.7237 10.9318 15.7195 10.9332 15.7138C10.9991 15.5597 11.0691 15.4083 11.1434 15.2584C11.1546 15.2346 11.1672 15.2107 11.1785 15.1855C11.2541 15.0342 11.3326 14.8856 11.4153 14.7385C11.4279 14.7147 11.4405 14.6922 11.4545 14.6698C11.5358 14.5269 11.6213 14.3853 11.7096 14.2452C11.7194 14.2298 11.7292 14.2143 11.739 14.1989C11.7446 14.1891 11.7516 14.1793 11.7586 14.1695C11.8483 14.0294 11.9422 13.892 12.0375 13.7575C12.0543 13.7337 12.0725 13.7085 12.0894 13.6846C12.1875 13.5487 12.2898 13.4142 12.3949 13.2824C12.4117 13.2614 12.4299 13.2404 12.4467 13.2194C12.5532 13.0876 12.6625 12.9573 12.776 12.8298C12.7901 12.813 12.8055 12.7975 12.8195 12.7807C12.9358 12.6504 13.0563 12.5243 13.1796 12.3995C13.1937 12.3855 13.2063 12.3729 13.2203 12.3589C13.3408 12.2398 13.4627 12.1221 13.5889 12.0086C13.6001 11.9987 13.6113 11.9875 13.6225 11.9777C13.6295 11.9721 13.6351 11.9665 13.6421 11.9609C13.7682 11.8488 13.8972 11.7395 14.0275 11.6316C14.0485 11.6148 14.0695 11.5966 14.0906 11.5797C14.2237 11.4732 14.3582 11.3709 14.497 11.27C14.5208 11.2532 14.5446 11.235 14.5698 11.2182C14.7086 11.1187 14.8501 11.022 14.9945 10.9295C15.0169 10.9155 15.0407 10.9001 15.0631 10.8861C15.2117 10.7922 15.3616 10.7011 15.5158 10.6142C15.527 10.6086 15.5382 10.6016 15.5494 10.596C17.353 12.1655 19.0052 14.1695 20.3842 16.458C17.0573 17.6281 13.544 17.9673 10.3586 17.4263C10.3614 17.4137 10.3642 17.4025 10.367 17.3899L10.3684 17.3927ZM21.3554 9.22959C21.4128 9.2324 21.4703 9.238 21.5277 9.2408C21.6441 9.24781 21.759 9.25622 21.8739 9.26603C21.9412 9.27304 22.0084 9.28145 22.0757 9.28846C22.1794 9.29967 22.2831 9.31227 22.3868 9.32768C22.4583 9.33749 22.5283 9.35012 22.5984 9.36133C22.6979 9.37815 22.796 9.39497 22.8941 9.41318C22.9656 9.4272 23.0371 9.4412 23.1085 9.45662C23.2052 9.47764 23.3019 9.49866 23.3972 9.52248C23.4687 9.5393 23.5388 9.55752 23.6088 9.57573C23.7041 9.60096 23.7994 9.62759 23.8947 9.65562C23.9634 9.67524 24.032 9.69625 24.1007 9.71728C24.1974 9.74811 24.2941 9.78035 24.3908 9.81398C24.4553 9.8364 24.5197 9.85742 24.5842 9.88125C24.6879 9.92048 24.7916 9.96112 24.8939 10.0032C24.9486 10.0256 25.0032 10.0452 25.0565 10.069C25.2036 10.1321 25.3494 10.198 25.4937 10.2666C25.5077 10.2736 25.5231 10.2806 25.5371 10.2877C25.6829 10.3577 25.8272 10.432 25.9688 10.5091C26.0206 10.5371 26.0711 10.5665 26.1215 10.596C26.2182 10.6506 26.3149 10.7053 26.4116 10.7641C26.4705 10.7991 26.5265 10.837 26.584 10.8734C26.6709 10.9281 26.7564 10.9827 26.8418 11.0402C26.9021 11.0808 26.961 11.1229 27.0198 11.1635C27.1011 11.221 27.1824 11.2784 27.2623 11.3387C27.3211 11.3821 27.3786 11.427 27.4374 11.4718C27.5159 11.5335 27.5944 11.5951 27.6715 11.6596C27.7275 11.7059 27.7836 11.7535 27.8396 11.8011C27.8691 11.8264 27.8985 11.8544 27.9279 11.8796C26.2771 13.4688 24.2745 14.8029 22.0645 15.7909C20.7135 13.4968 19.0991 11.4578 17.3264 9.79716C18.4475 9.41038 19.6219 9.21418 20.8327 9.21418C21.0078 9.21418 21.1816 9.21838 21.3554 9.22679V9.22959ZM10.0798 19.1907C11.1616 19.3729 12.2757 19.464 13.4053 19.464C16.0091 19.464 18.6983 18.9847 21.2685 18.0416C21.6076 18.6932 21.9272 19.3645 22.2242 20.054C22.0743 20.1044 21.9257 20.1549 21.7772 20.2095C18.0075 21.6039 14.8837 24.0858 12.8587 27.2571C11.0621 25.2826 10.0489 22.6942 10.0489 20.0007C10.0489 19.7302 10.0601 19.4598 10.0798 19.1907ZM20.3562 30.7732C20.3043 30.7704 20.2525 30.7662 20.2006 30.7634C20.0941 30.7578 19.989 30.7508 19.8825 30.741C19.8209 30.7354 19.7606 30.7284 19.6989 30.7214C19.6036 30.7116 19.5069 30.7004 19.4116 30.6877C19.3472 30.6793 19.2827 30.6695 19.2183 30.6597C19.1272 30.6457 19.0361 30.6317 18.945 30.6149C18.8791 30.6037 18.8133 30.591 18.7488 30.577C18.6591 30.5588 18.5708 30.5406 18.4825 30.521C18.4167 30.507 18.3522 30.4915 18.2877 30.4747C18.1994 30.4537 18.1112 30.4299 18.0243 30.4075C17.9598 30.3906 17.8967 30.3724 17.8337 30.3542C17.7454 30.329 17.6571 30.301 17.5688 30.2729C17.5072 30.2533 17.4469 30.2351 17.3852 30.2141C17.2941 30.1832 17.2031 30.1496 17.1134 30.1174C17.0573 30.0964 16.9998 30.0767 16.9438 30.0543C16.8457 30.0165 16.7476 29.9758 16.6495 29.9338C16.6033 29.9142 16.557 29.8959 16.5108 29.8763C16.3706 29.8147 16.2319 29.7502 16.0945 29.6829C16.0917 29.6829 16.0889 29.6801 16.0861 29.6787C15.9446 29.6101 15.8059 29.5372 15.6671 29.4615C15.6265 29.4391 15.5858 29.4139 15.5438 29.3914C15.4485 29.3382 15.3532 29.2835 15.2593 29.2275C15.2089 29.1966 15.1584 29.1644 15.108 29.1322C15.0253 29.0803 14.9426 29.0285 14.8613 28.9738C14.8081 28.9388 14.7548 28.901 14.703 28.8645C14.6259 28.8113 14.5502 28.758 14.4745 28.702C14.4199 28.6627 14.3666 28.6221 14.3134 28.5814C14.2727 28.5506 14.2321 28.5184 14.1915 28.4862C15.9979 25.5096 18.8875 23.1791 22.398 21.88C22.5578 21.8211 22.7203 21.7665 22.8829 21.7118C23.8835 24.4726 24.4777 27.3552 24.6122 30.1006C24.4567 30.1594 24.2997 30.2141 24.1428 30.2645C24.1007 30.2785 24.0573 30.2897 24.0152 30.3024C23.8919 30.3402 23.7672 30.378 23.6425 30.4117C23.5808 30.4285 23.5177 30.4425 23.4547 30.4593C23.3482 30.4859 23.2417 30.5112 23.1338 30.535C23.0665 30.5504 22.9978 30.563 22.9291 30.577C22.8254 30.598 22.7217 30.6163 22.6166 30.6345C22.548 30.6457 22.4779 30.6569 22.4078 30.6667C22.3013 30.6821 22.1948 30.6961 22.0869 30.7074C22.0196 30.7158 21.9538 30.7228 21.8865 30.7298C21.7688 30.741 21.6511 30.7494 21.5334 30.7564C21.4759 30.7606 21.4198 30.7648 21.3624 30.7676C21.1872 30.776 21.0106 30.7816 20.8341 30.7816C20.6743 30.7816 20.5159 30.7774 20.3576 30.7704L20.3562 30.7732Z" fill="white"/>
</svg>
