<?xml version="1.0" encoding="UTF-8"?>
<svg id="Layer_1" data-name="Layer 1" xmlns="http://www.w3.org/2000/svg" viewBox="0 0 153.55 132.34">
  <defs>
    <style>
      .cls-1 {
        fill: #0c8748;
      }

      .cls-1, .cls-2, .cls-3 {
        fill-rule: evenodd;
        stroke-width: 0px;
      }

      .cls-2 {
        fill: #078848;
      }

      .cls-3 {
        fill: #91be3f;
      }
    </style>
  </defs>
  <path class="cls-1" d="M77.02,0c-10.54,0-19.09,8.55-19.09,19.09s8.55,19.09,19.09,19.09,19.09-8.55,19.09-19.09S87.56,0,77.02,0h0Z"/>
  <path class="cls-3" d="M103.71,74.58c11.21-8.31,22.42-16.62,33.63-24.93.54-.43,1.08-.86,1.62-1.29,3.42-2.72,4.65-3.6,5.57-8.03,1.99-9.52-2.43-16.04-10.96-18.4-3.44-.95-6.07-.84-9.26.64-3.15,1.45-6.07,3.63-8.95,5.4-4.13,3-8.26,6-12.39,9-2.75,2.16-5.51,4.33-8.26,6.49-.99.77-1.98,1.55-2.97,2.32-3.18,2.49-4.99,5.06-6.07,8.18-3.2,9.2-2.08,21.21-2,31.31.02,2.01.06,3.51.54,5.46.27,1.11.54,2.22.81,3.33h0c-.19-2.16.66-4.26,2.74-6.83,3.98-4.93,10.89-8.81,15.96-12.64h0Z"/>
  <path class="cls-2" d="M130.64,132.34c7.64-5.21,15.27-10.42,22.91-15.64-.07-1.69-.15-3.39-.22-5.08-16.54-12.35-33.08-24.7-49.62-37.04-5.08,3.83-11.98,7.71-15.96,12.64-4.37,5.42-3.3,8.73,1.47,15.01,3.59,2.8,6.92,6.12,10.51,8.92,9.29,7.06,18.58,14.12,27.88,21.18h3.04Z"/>
  <path class="cls-3" d="M49.84,74.58c-11.21-8.31-22.42-16.62-33.63-24.93-.54-.43-1.08-.86-1.62-1.29-3.42-2.72-4.65-3.6-5.57-8.03-1.99-9.52,2.43-16.04,10.96-18.4,3.44-.95,6.07-.84,9.26.64,3.15,1.45,6.07,3.63,8.95,5.4,4.13,3,8.26,6,12.39,9,2.75,2.16,5.51,4.33,8.26,6.49.99.77,1.98,1.55,2.97,2.32,3.18,2.49,4.99,5.06,6.07,8.18,3.2,9.2,2.08,21.21,2,31.31-.01,2.01-.06,3.51-.54,5.46-.27,1.11-.54,2.22-.81,3.33h0c.19-2.16-.66-4.26-2.74-6.83-3.98-4.93-10.89-8.81-15.96-12.64h0Z"/>
  <path class="cls-2" d="M22.91,132.34c-7.64-5.21-15.27-10.42-22.91-15.64.07-1.69.15-3.39.22-5.08,16.54-12.35,33.08-24.7,49.62-37.04,5.08,3.83,11.98,7.71,15.96,12.64,4.37,5.42,3.3,8.73-1.47,15.01-3.59,2.8-6.92,6.12-10.51,8.92-9.29,7.06-18.58,14.12-27.88,21.18h-3.04Z"/>
</svg>